<?xml version="1.0" encoding="UTF-8" standalone="no"?>
<!DOCTYPE svg PUBLIC "-//W3C//DTD SVG 1.1//EN"
 "http://www.w3.org/Graphics/SVG/1.1/DTD/svg11.dtd">
<!-- Generated by graphviz version 2.38.0 (20140413.2041)
 -->
<!-- Title: dependencies Pages: 1 -->
<svg width="985pt" height="284pt"
 viewBox="0.00 0.00 985.00 284.00" xmlns="http://www.w3.org/2000/svg" xmlns:xlink="http://www.w3.org/1999/xlink">
<g id="graph0" class="graph" transform="scale(1 1) rotate(0) translate(4 280)">
<title>dependencies</title>
<polygon fill="white" stroke="none" points="-4,4 -4,-280 981,-280 981,4 -4,4"/>
<text text-anchor="start" x="467.509" y="-42.4" font-family="sans-serif" font-weight="bold" font-size="14.00">Legend</text>
<polygon fill="#ffffb3" stroke="none" points="254.5,-10 254.5,-30 274.5,-30 274.5,-10 254.5,-10"/>
<text text-anchor="start" x="278.129" y="-15.4" font-family="sans-serif" font-size="14.00"> &#160;Declarations</text>
<polygon fill="#8dd3c7" stroke="none" points="367.5,-10 367.5,-30 387.5,-30 387.5,-10 367.5,-10"/>
<text text-anchor="start" x="391.225" y="-15.4" font-family="sans-serif" font-size="14.00"> &#160;Module</text>
<polygon fill="#80b1d3" stroke="none" points="453.5,-10 453.5,-30 473.5,-30 473.5,-10 453.5,-10"/>
<text text-anchor="start" x="477.281" y="-15.4" font-family="sans-serif" font-size="14.00"> &#160;Bootstrap</text>
<polygon fill="#fdb462" stroke="none" points="550.5,-10 550.5,-30 570.5,-30 570.5,-10 550.5,-10"/>
<text text-anchor="start" x="574.173" y="-15.4" font-family="sans-serif" font-size="14.00"> &#160;Providers</text>
<polygon fill="#fb8072" stroke="none" points="646.5,-10 646.5,-30 666.5,-30 666.5,-10 646.5,-10"/>
<text text-anchor="start" x="670.226" y="-15.4" font-family="sans-serif" font-size="14.00"> &#160;Exports</text>
<g id="clust1" class="cluster"><title>cluster_AppRoutingModule</title>
<polygon fill="none" stroke="black" stroke-dasharray="1,5" points="8,-70 8,-268 218,-268 218,-70 8,-70"/>
</g>
<g id="clust3" class="cluster"><title>cluster_AppRoutingModule_imports</title>
<polygon fill="none" stroke="black" points="16,-78 16,-130 210,-130 210,-78 16,-78"/>
</g>
<g id="clust4" class="cluster"><title>cluster_AppRoutingModule_exports</title>
<polygon fill="none" stroke="black" points="54,-208 54,-260 172,-260 172,-208 54,-208"/>
</g>
<g id="clust7" class="cluster"><title>cluster_AppModule</title>
<polygon fill="none" stroke="black" stroke-dasharray="1,5" points="226,-70 226,-268 969,-268 969,-70 226,-70"/>
</g>
<g id="clust8" class="cluster"><title>cluster_AppModule_declarations</title>
<polygon fill="none" stroke="black" points="580,-78 580,-130 961,-130 961,-78 580,-78"/>
</g>
<g id="clust12" class="cluster"><title>cluster_AppModule_imports</title>
<polygon fill="none" stroke="black" points="234,-78 234,-130 572,-130 572,-78 234,-78"/>
</g>
<g id="clust14" class="cluster"><title>cluster_AppModule_bootstrap</title>
<polygon fill="none" stroke="black" points="514,-208 514,-260 638,-260 638,-208 514,-208"/>
</g>
<!-- RouterModule.forRoot(args) -->
<g id="node1" class="node"><title>RouterModule.forRoot(args)</title>
<polygon fill="#8dd3c7" stroke="black" points="201.842,-122 198.842,-126 177.842,-126 174.842,-122 24.1581,-122 24.1581,-86 201.842,-86 201.842,-122"/>
<text text-anchor="middle" x="113" y="-99.8" font-family="Times,serif" font-size="14.00">RouterModule.forRoot(args)</text>
</g>
<!-- AppRoutingModule -->
<g id="node2" class="node"><title>AppRoutingModule</title>
<polygon fill="#8dd3c7" stroke="black" points="177.274,-187 174.274,-191 153.274,-191 150.274,-187 48.7256,-187 48.7256,-151 177.274,-151 177.274,-187"/>
<text text-anchor="middle" x="113" y="-164.8" font-family="Times,serif" font-size="14.00">AppRoutingModule</text>
</g>
<!-- RouterModule.forRoot(args)&#45;&gt;AppRoutingModule -->
<g id="edge1" class="edge"><title>RouterModule.forRoot(args)&#45;&gt;AppRoutingModule</title>
<path fill="none" stroke="black" d="M113,-122.106C113,-122.106 113,-140.991 113,-140.991"/>
<polygon fill="black" stroke="black" points="109.5,-140.991 113,-150.991 116.5,-140.991 109.5,-140.991"/>
</g>
<!-- RouterModule  -->
<g id="node3" class="node"><title>RouterModule </title>
<polygon fill="#fb8072" stroke="black" points="163.652,-252 62.3477,-252 62.3477,-216 163.652,-216 163.652,-252"/>
<text text-anchor="middle" x="113" y="-229.8" font-family="Times,serif" font-size="14.00">RouterModule </text>
</g>
<!-- AppRoutingModule&#45;&gt;RouterModule  -->
<g id="edge2" class="edge"><title>AppRoutingModule&#45;&gt;RouterModule </title>
<path fill="none" stroke="black" stroke-dasharray="5,2" d="M113,-187.106C113,-187.106 113,-205.991 113,-205.991"/>
<polygon fill="black" stroke="black" points="109.5,-205.991 113,-215.991 116.5,-205.991 109.5,-205.991"/>
</g>
<!-- AppComponent -->
<g id="node4" class="node"><title>AppComponent</title>
<polygon fill="#ffffb3" stroke="black" points="952.94,-122 847.06,-122 847.06,-86 952.94,-86 952.94,-122"/>
<text text-anchor="middle" x="900" y="-99.8" font-family="Times,serif" font-size="14.00">AppComponent</text>
</g>
<!-- AppModule -->
<g id="node7" class="node"><title>AppModule</title>
<polygon fill="#8dd3c7" stroke="black" points="617.657,-187 614.657,-191 593.657,-191 590.657,-187 534.343,-187 534.343,-151 617.657,-151 617.657,-187"/>
<text text-anchor="middle" x="576" y="-164.8" font-family="Times,serif" font-size="14.00">AppModule</text>
</g>
<!-- AppComponent&#45;&gt;AppModule -->
<g id="edge3" class="edge"><title>AppComponent&#45;&gt;AppModule</title>
<path fill="none" stroke="black" d="M900,-122.284C900,-143.321 900,-175 900,-175 900,-175 627.694,-175 627.694,-175"/>
<polygon fill="black" stroke="black" points="627.694,-171.5 617.694,-175 627.694,-178.5 627.694,-171.5"/>
</g>
<!-- HomeComponent -->
<g id="node5" class="node"><title>HomeComponent</title>
<polygon fill="#ffffb3" stroke="black" points="829.545,-122 714.455,-122 714.455,-86 829.545,-86 829.545,-122"/>
<text text-anchor="middle" x="772" y="-99.8" font-family="Times,serif" font-size="14.00">HomeComponent</text>
</g>
<!-- HomeComponent&#45;&gt;AppModule -->
<g id="edge4" class="edge"><title>HomeComponent&#45;&gt;AppModule</title>
<path fill="none" stroke="black" d="M772,-122.023C772,-139.373 772,-163 772,-163 772,-163 628.047,-163 628.047,-163"/>
<polygon fill="black" stroke="black" points="628.047,-159.5 618.047,-163 628.047,-166.5 628.047,-159.5"/>
</g>
<!-- UserComponent -->
<g id="node6" class="node"><title>UserComponent</title>
<polygon fill="#ffffb3" stroke="black" points="695.759,-122 588.241,-122 588.241,-86 695.759,-86 695.759,-122"/>
<text text-anchor="middle" x="642" y="-99.8" font-family="Times,serif" font-size="14.00">UserComponent</text>
</g>
<!-- UserComponent&#45;&gt;AppModule -->
<g id="edge5" class="edge"><title>UserComponent&#45;&gt;AppModule</title>
<path fill="none" stroke="black" d="M602.974,-122.106C602.974,-122.106 602.974,-140.991 602.974,-140.991"/>
<polygon fill="black" stroke="black" points="599.474,-140.991 602.974,-150.991 606.474,-140.991 599.474,-140.991"/>
</g>
<!-- AppComponent  -->
<g id="node11" class="node"><title>AppComponent </title>
<polygon fill="#80b1d3" stroke="black" points="630.439,-252 521.561,-252 521.561,-216 630.439,-216 630.439,-252"/>
<text text-anchor="middle" x="576" y="-229.8" font-family="Times,serif" font-size="14.00">AppComponent </text>
</g>
<!-- AppModule&#45;&gt;AppComponent  -->
<g id="edge9" class="edge"><title>AppModule&#45;&gt;AppComponent </title>
<path fill="none" stroke="black" stroke-dasharray="1,5" d="M576,-187.106C576,-187.106 576,-205.991 576,-205.991"/>
<polygon fill="black" stroke="black" points="572.5,-205.991 576,-215.991 579.5,-205.991 572.5,-205.991"/>
</g>
<!-- BrowserModule -->
<g id="node8" class="node"><title>BrowserModule</title>
<polygon fill="#8dd3c7" stroke="black" points="564.473,-122 561.473,-126 540.473,-126 537.473,-122 457.527,-122 457.527,-86 564.473,-86 564.473,-122"/>
<text text-anchor="middle" x="511" y="-99.8" font-family="Times,serif" font-size="14.00">BrowserModule</text>
</g>
<!-- BrowserModule&#45;&gt;AppModule -->
<g id="edge6" class="edge"><title>BrowserModule&#45;&gt;AppModule</title>
<path fill="none" stroke="black" d="M549.329,-122.106C549.329,-122.106 549.329,-140.991 549.329,-140.991"/>
<polygon fill="black" stroke="black" points="545.829,-140.991 549.329,-150.991 552.829,-140.991 545.829,-140.991"/>
</g>
<!-- FormsModule -->
<g id="node9" class="node"><title>FormsModule</title>
<polygon fill="#8dd3c7" stroke="black" points="439.829,-122 436.829,-126 415.829,-126 412.829,-122 344.171,-122 344.171,-86 439.829,-86 439.829,-122"/>
<text text-anchor="middle" x="392" y="-99.8" font-family="Times,serif" font-size="14.00">FormsModule</text>
</g>
<!-- FormsModule&#45;&gt;AppModule -->
<g id="edge7" class="edge"><title>FormsModule&#45;&gt;AppModule</title>
<path fill="none" stroke="black" d="M392,-122.023C392,-139.373 392,-163 392,-163 392,-163 524.248,-163 524.248,-163"/>
<polygon fill="black" stroke="black" points="524.248,-166.5 534.248,-163 524.248,-159.5 524.248,-166.5"/>
</g>
<!-- HttpModule -->
<g id="node10" class="node"><title>HttpModule</title>
<polygon fill="#8dd3c7" stroke="black" points="326.439,-122 323.439,-126 302.439,-126 299.439,-122 241.561,-122 241.561,-86 326.439,-86 326.439,-122"/>
<text text-anchor="middle" x="284" y="-99.8" font-family="Times,serif" font-size="14.00">HttpModule</text>
</g>
<!-- HttpModule&#45;&gt;AppModule -->
<g id="edge8" class="edge"><title>HttpModule&#45;&gt;AppModule</title>
<path fill="none" stroke="black" d="M284,-122.284C284,-143.321 284,-175 284,-175 284,-175 524.164,-175 524.164,-175"/>
<polygon fill="black" stroke="black" points="524.164,-178.5 534.164,-175 524.163,-171.5 524.164,-178.5"/>
</g>
</g>
</svg>
